Coordinates
version=1
nRows=5
nColumns=40
inDegrees=yes

Units are S.I. units (second, meters, Newtons, ...)
If the header above contains a line with 'inDegrees', this indicates whether rotational values are in degrees (yes) or radians (no).

endheader
time	pelvis_tilt	pelvis_list	pelvis_rotation	pelvis_tx	pelvis_ty	pelvis_tz	hip_flexion_r	hip_adduction_r	hip_rotation_r	knee_angle_r	knee_angle_r_beta	ankle_angle_r	subtalar_angle_r	mtp_angle_r	hip_flexion_l	hip_adduction_l	hip_rotation_l	knee_angle_l	knee_angle_l_beta	ankle_angle_l	subtalar_angle_l	mtp_angle_l	lumbar_extension	lumbar_bending	lumbar_rotation	arm_flex_r	arm_add_r	arm_rot_r	elbow_flex_r	pro_sup_r	wrist_flex_r	wrist_dev_r	arm_flex_l	arm_add_l	arm_rot_l	elbow_flex_l	pro_sup_l	wrist_flex_l	wrist_dev_l
      0.00000000	    -59.17464330	     89.99623371	    -40.53001176	     -0.25873866	      1.99999658	      1.02449075	    -29.99639080	     -9.73164993	    -15.46403940	     20.66558342	      0.36068247	    -49.46667433	      8.76856357	      0.00000000	    -29.99415319	      3.58487118	    -19.76791733	     13.47476008	      0.23517893	     -6.09070087	      6.16093963	      0.00000000	     53.36892738	     12.03843182	      4.82204422	     86.09094632	   -119.99374214	    -89.96724168	     97.39659641	     18.23083281	      0.00000000	      0.00000000	     79.18432194	   -119.99406873	    -89.96614655	     91.61766188	     13.03800056	      0.00000000	      0.00000000
      0.01000000	    -59.78347427	     89.99613906	    -41.02158795	     -0.25923679	      1.99999652	      1.02403791	    -29.99632750	    -10.61360161	    -15.75413552	     20.44083877	      0.35675994	    -49.46081257	      9.39391728	      0.00000000	    -29.99380076	      4.49540995	    -20.70996374	     12.09990948	      0.21118326	     -4.11395745	      6.46117255	      0.00000000	     52.94631077	     13.07713854	      5.65587051	     86.74719964	   -119.99370695	    -89.96713219	     97.44734349	     18.22165434	      0.00000000	      0.00000000	     79.62570953	   -119.99404032	    -89.96594279	     91.61094560	     13.01287848	      0.00000000	      0.00000000
      0.02000000	    -60.31008525	     89.99603690	    -41.42908863	     -0.25980642	      1.99999646	      1.02362926	    -29.99626113	    -11.34094727	    -15.97928617	     20.20532160	      0.35264939	    -49.39636200	      9.99514445	      0.00000000	    -29.99341692	      5.24572104	    -21.76884006	     10.65270630	      0.18592480	     -1.97296458	      7.42384248	      0.00000000	     52.53334270	     13.94184233	      6.40444469	     87.46007924	   -119.99366875	    -89.96706388	     97.53070597	     18.15495953	      0.00000000	      0.00000000	     80.09607790	   -119.99400951	    -89.96573871	     91.58718695	     12.99423437	      0.00000000	      0.00000000
      0.03000000	    -60.87693973	     89.99593634	    -41.89277727	     -0.26039731	      1.99999639	      1.02290520	    -29.99619860	    -12.17295797	    -16.25092586	     20.01234777	      0.34928136	    -49.38745368	     10.73239163	      0.00000000	    -29.99297813	      6.08180633	    -22.73251456	      9.07341727	      0.15836101	      0.12196899	      8.23077761	      0.00000000	     52.07438971	     14.88069200	      7.25171372	     88.16634922	   -119.99363258	    -89.96701568	     97.62602391	     18.10879192	      0.00000000	      0.00000000	     80.55263674	   -119.99398155	    -89.96547173	     91.61095656	     12.89659195	      0.00000000	      0.00000000
      0.04000000	    -61.39097903	     89.99582880	    -42.31248749	     -0.26086345	      1.99999633	      1.02207268	    -29.99613080	    -12.91888969	    -16.51553668	     19.81035775	      0.34575597	    -49.34484565	     11.39313215	      0.00000000	    -29.99249840	      6.85066460	    -23.56496693	      7.41691617	      0.12944961	      2.30891031	      9.29268048	      0.00000000	     51.60915706	     15.72150148	      8.04445261	     88.86919411	   -119.99359356	    -89.96706695	     97.72567033	     18.05344649	      0.00000000	      0.00000000	     81.05984622	   -119.99394682	    -89.96518876	     91.50814847	     12.99226128	      0.00000000	      0.00000000
